# xmcd
#
# Track frame offsets:
#	150
#	18432
#	34622
#	52622
#	70430
#	83035
#	100095
#	115200
#	129615
#	145617
#	163137
#	174305
#	190720
#	207382
#	224442
#
# Disc length: 3234 seconds
#
# Revision: 1
# Processed by: cddbd v1.5.1PL2 Copyright (c) Steve Scherf et al.
# Submitted via: audiograbber 1.83.01
#
DISCID=ca0ca00f
DTITLE=Various Artist - SC8341
DYEAR=1900
DGENRE=Karaoke
TTITLE0=Crystal Bernard - Have We Forgotten What Love Is
TTITLE1=Lorrie Morgan - Good As I Was To You
TTITLE2=Billy Dean - I Wouldn't Be A Man
TTITLE3=Frazier River - Last Request
TTITLE4=Alan Jackson - Little Bitty
TTITLE5=Larry Stewart - Always A Woman
TTITLE6=Michelle Wright - The Answer Is Yes
TTITLE7=Keith Perry - All I Give A Darn About Is You
TTITLE8=Blackhawk - King Of The World
TTITLE9=Chris LeDoux - Five Dollar Fine
TTITLE10=Three Hanks - Move It On Over
TTITLE11=Marty Haggard - Hello God
TTITLE12=Paul Brandt - I Meant To Do That
TTITLE13=Tony Toliver - He's On The Way Home
TTITLE14=Charlie Major - Tell Me Something I Don't Know
EXTD=
EXTT0=
EXTT1=
EXTT2=
EXTT3=
EXTT4=
EXTT5=
EXTT6=
EXTT7=
EXTT8=
EXTT9=
EXTT10=
EXTT11=
EXTT12=
EXTT13=
EXTT14=
PLAYORDER=
